<?xml version="1.0" encoding="utf-8"?>
<!-- Generator: Adobe Illustrator 17.1.0, SVG Export Plug-In . SVG Version: 6.00 Build 0)  -->
<!DOCTYPE svg PUBLIC "-//W3C//DTD SVG 1.1//EN" "http://www.w3.org/Graphics/SVG/1.1/DTD/svg11.dtd">
<svg version="1.1" id="Layer_1" xmlns="http://www.w3.org/2000/svg" xmlns:xlink="http://www.w3.org/1999/xlink" x="0px" y="0px"
	 viewBox="1 333.1 257.2 333.5" enable-background="new 1 333.1 257.2 333.5" xml:space="preserve">
<g>
	<path fill="#020407" d="M62.3,608.9c0,0,16.8,49,28.3,53.9c11.5,4.9,20.4,5.3,24.3,0c4-5.3,2.2-19,2.2-19l0.4-14.2
		C117.6,629.5,98.2,605.8,62.3,608.9z"/>
</g>
<g>
	<path fill="#020407" d="M200.2,608.9c0,0-16.8,49-28.3,53.9c-11.5,4.9-20.4,5.3-24.3,0c-4-5.3-2.2-19-2.2-19l-0.4-14.2
		C144.9,629.5,164.3,605.8,200.2,608.9z"/>
</g>
<g>
	<ellipse fill="#FFFFFF" cx="129.7" cy="557.9" rx="76.6" ry="75.2"/>
	<path d="M129.7,643.7c-48.1,0-87.2-38.5-87.2-85.8s39.1-85.8,87.2-85.8c48.1,0,87.2,38.5,87.2,85.8
		C216.9,605.2,177.8,643.7,129.7,643.7z M129.7,493.4c-36.4,0-66,29-66,64.6s29.6,64.6,66,64.6c36.4,0,66-29,66-64.6
		S166.1,493.4,129.7,493.4z"/>
</g>
<g opacity="8.000000e-02">
	<path fill="#141416" d="M102.8,539.3c0-29.3,17.5-54.5,42.7-66.3c-3.7-0.6-7.5-0.9-11.4-0.9c-41.2,0-74.7,32.8-74.7,73.3
		c0,40.5,25.6,67.3,51.3,74.4c25.7,7.1,47-2.2,51.1-5.4C165.9,611.3,102.8,581.6,102.8,539.3z"/>
</g>
<g>
	<path d="M187.4,368.9c0-18.3,14.9-28.6,33.2-28.6c18.3,0,33.2,14.9,33.2,33.2c0,18.3-11.9,33.2-30.2,33.2
		c-10.9,0-8.2-5.2-15.1-13.3L187.4,368.9z"/>
	<path d="M223.5,410.9c-9.1,0-11.7-3.5-14.3-8.6c-1-1.8-1.6-3.9-3.6-6.2L184,370.5v-1.6c0-19.3,14.9-32.8,37-32.8
		c20.6,0,37.2,16.8,37.2,37.4C258.2,395.2,243.5,410.9,223.5,410.9z M191.6,367.4l20,23.2c2.6,3.1,4.1,5.8,5.1,7.9
		c1.8,3.5,2.1,4,6.7,4c15.1,0,26-12.2,26-29c0-16-13-29-29-29C200.1,344.5,192.3,356.5,191.6,367.4z"/>
</g>
<g>
	<path fill="#010305" d="M71.6,368.9c0-18.3-14.9-28.6-33.2-28.6S5.2,355.2,5.2,373.5c0,18.3,11.9,33.2,30.2,33.2
		c10.9,0,8.2-5.2,15.1-13.3L71.6,368.9z"/>
	<path fill="#010305" d="M35.5,410.9c-20,0-34.5-15.7-34.5-37.4c0-20.6,16.9-37.4,37.5-37.4c22,0,37.5,13.5,37.5,32.8v1.6
		l-22.2,25.7c-2,2.3-3.1,4.4-4,6.2C47.2,407.4,44.6,410.9,35.5,410.9z M38.4,344.5c-16,0-29,13-29,29c0,16.8,10.9,29,26,29
		c4.7,0,4.9-0.5,6.7-4c1-2,2.5-4.8,5.1-7.8l20.1-23.2C66.7,356.5,58.9,344.5,38.4,344.5z"/>
</g>
<g>
	<circle fill="#FFFFFF" cx="39.5" cy="373.5" r="19.9"/>
</g>
<g>
	<circle fill="#FFFFFF" cx="219.5" cy="373.5" r="19.9"/>
</g>
<g>
	<path fill="#080A0C" d="M130.6,537.8L130.6,537.8c-63.3,0-112.8-47.2-112.8-106.9c0-57.4,46.4-97.6,112.8-97.8
		c64.3,0.2,112.8,42.2,112.8,97.7C243.4,488.6,191.8,537.8,130.6,537.8L130.6,537.8L130.6,537.8z M130.6,350.1
		c-56.4,0.2-95.8,33.4-95.8,80.8c0,50.3,42.1,89.8,95.9,90c52-0.2,95.9-41.4,95.9-90C226.5,378.6,177.1,350.2,130.6,350.1z"/>
</g>
<g>
	<path fill="#FFFFFF" d="M230.4,431.8c0,49.9-45.9,92.5-100,92.5s-100-40.5-100-90.4c0-49.9,45.9-90.4,100-90.4
		C184.5,343.5,230.4,381.8,230.4,431.8z"/>
</g>
<g>
	<ellipse transform="matrix(0.1307 -0.9914 0.9914 0.1307 -329.4157 443.7301)" cx="88.3" cy="409.7" rx="31.8" ry="21.9"/>
</g>
<g>
	<circle fill="#FFFFFF" cx="91.1" cy="396" r="9.4"/>
</g>
<g>
	<ellipse transform="matrix(0.1307 0.9914 -0.9914 0.1307 556.0231 185.3235)" cx="172.3" cy="409.7" rx="31.8" ry="21.9"/>
</g>
<g>
	<circle fill="#FFFFFF" cx="169.6" cy="396" r="9.4"/>
</g>
<g>
	<path fill="#010305" d="M150.5,450.9c0,6.1-8.6,11.1-19.3,11.1c-10.7,0-19.3-5-19.3-11.1c0-4.9,1.2-9,8.8-10.5
		c2-0.4,8.3-0.6,10.5-0.6c2.3,0,8.8,0.2,10.8,0.7C149.4,442,150.5,446.1,150.5,450.9z"/>
</g>
<g>
	<path fill="#02060C" d="M137,477.5c0,2.9-2.4,5.3-5.3,5.3h-0.4c-2.9,0-5.3-2.4-5.3-5.3v-14.4c0-2.9,2.4-5.3,5.3-5.3h0.4
		c2.9,0,5.3,2.4,5.3,5.3V477.5z"/>
</g>
<g>
	<path fill="#02060C" d="M160.1,471c0,7.1-12.7,12.9-28.3,12.9c-15.6,0-30.9-6.7-30.9-13.9c0-7.1,14.6,3.7,30.3,3.7
		C146.8,473.8,160.1,463.9,160.1,471z"/>
</g>
<g>
	<path fill="#E7EAE4" d="M139.5,448.8c0,2-4.9,3.6-8.4,3.6c-3.5,0-8.4-1.6-8.4-3.6c0-1.6,2.5-2.9,5-3.4c0.6-0.1,2.7-0.2,3.4-0.2
		c0.8,0,2.8,0.1,3.5,0.2C137.1,445.9,139.5,447.2,139.5,448.8z"/>
</g>
<g opacity="8.000000e-02">
	<path fill="#141416" d="M47.3,433.9c0-47.4,41.3-86.2,91.7-90.1c-2.8-0.2-5.7-0.3-8.6-0.3c-54.1,0-100,40.5-100,90.4
		c0,49.9,45.9,90.4,100,90.4c2.8,0,5.6-0.1,8.3-0.4C88.5,519.9,47.3,481.2,47.3,433.9z"/>
</g>
<g opacity="4.000000e-02">
	<path fill="#141416" d="M130.4,343.5c-2.1,0-4.2,0.1-6.3,0.2c51.2,2.9,93.6,40.2,93.6,88.1c0,48-42.4,89.2-93.7,92.3
		c2.1,0.1,4.3,0.2,6.4,0.2c54.1,0,100-42.6,100-92.5C230.4,381.8,184.5,343.5,130.4,343.5z"/>
</g>
<g>
	<path fill="#020407" d="M47.5,505.2c0,0-37,42.4-6.2,68.6c30.8,26.2,52.7,0.8,53.3,0c0.7-0.8,8.2-9-13.3-28.4
		c-21.5-19.4,0-20.2,0-20.2S63.7,500.6,47.5,505.2z"/>
</g>
<g>
	<path fill="#020407" d="M209.3,507.3c0,0,37,42.4,6.2,68.6c-30.8,26.2-52.7,0.8-53.3,0c-0.6-0.8-8.2-9,13.3-28.4
		c21.5-19.4,0-20.2,0-20.2S193.1,502.7,209.3,507.3z"/>
</g>
<g>
	<path fill="#282875" d="M286.1,595"/>
</g>
</svg>
